<svg version="1.1" id="Layer_1" xmlns="http://www.w3.org/2000/svg" xmlns:xlink="http://www.w3.org/1999/xlink" x="0px" y="0px"
	 width="100%" viewBox="0 0 965 967" enable-background="new 0 0 965 967" xml:space="preserve">
<path fill="#000000" opacity="1.000000" stroke="none" 
	d="
M614.000000,968.000000 
	C409.333344,968.000000 205.166672,968.000000 1.000000,968.000000 
	C1.000000,645.666687 1.000000,323.333344 1.000000,1.000000 
	C322.666656,1.000000 644.333313,1.000000 966.000000,1.000000 
	C966.000000,323.333344 966.000000,645.666687 966.000000,968.000000 
	C848.833313,968.000000 731.666687,968.000000 614.000000,968.000000 
M297.100037,512.494080 
	C319.926941,512.449829 342.754486,512.307129 365.580200,512.451538 
	C369.716492,512.477661 371.269653,511.124817 372.260925,507.110199 
	C382.076599,467.356171 392.087616,427.650085 402.144745,387.956146 
	C404.023651,380.540314 406.352997,373.238586 408.474457,365.884216 
	C409.072540,365.867279 409.670624,365.850372 410.268707,365.833435 
	C419.861084,399.542664 429.453430,433.251892 439.186401,467.455139 
	C430.537720,467.455139 423.057495,467.674622 415.598755,467.369141 
	C411.424683,467.198212 409.288483,468.322906 408.306885,472.693604 
	C405.791260,483.894775 402.786285,494.985992 399.980133,506.121979 
	C398.398132,512.399963 398.400940,512.411316 405.090820,512.414185 
	C456.246490,512.435791 507.402191,512.453064 558.557861,512.471558 
	C560.521973,512.472229 562.486084,512.471619 564.949097,512.471619 
	C564.949097,514.704468 564.949707,516.499146 564.949036,518.293823 
	C564.931763,564.450623 564.955688,610.607544 564.824951,656.764038 
	C564.813416,660.835754 565.818909,662.258362 570.170349,662.111511 
	C581.489258,661.729553 592.838684,661.593384 604.152161,662.008545 
	C609.301025,662.197632 610.207031,660.375793 610.191833,655.769531 
	C610.041260,610.113281 610.087341,564.456360 610.078003,518.799622 
	C610.077576,516.849548 610.077942,514.899414 610.077942,512.455383 
	C612.308289,512.455383 613.940247,512.457581 615.572144,512.455017 
	C628.569275,512.434448 641.568237,512.284302 654.562561,512.465332 
	C658.791077,512.524292 660.555603,511.372101 660.453918,506.821075 
	C660.197266,495.329529 660.243164,483.825073 660.476440,472.332062 
	C660.554749,468.474426 659.152466,467.508820 655.533020,467.560059 
	C641.871887,467.753571 628.207031,467.690063 614.543579,467.699158 
	C613.110596,467.700104 611.677490,467.545197 610.333374,467.467712 
	C610.333374,433.709930 610.333374,400.434204 610.333374,366.562622 
	C612.395447,366.562622 614.178467,366.565186 615.961487,366.562195 
	C628.958679,366.540314 641.958008,366.374329 654.951782,366.574097 
	C659.357910,366.641876 660.776794,365.099121 660.678101,360.761902 
	C660.424072,349.602875 660.428955,338.433319 660.596375,327.271973 
	C660.653625,323.457611 659.555420,321.965607 655.520264,321.971069 
	C607.864136,322.035309 560.207642,321.991608 512.551636,321.847321 
	C508.677704,321.835602 507.792542,323.305511 507.854614,326.877991 
	C508.054260,338.372284 508.121307,349.875427 507.873749,361.367279 
	C507.786530,365.416565 509.177063,366.502686 513.023132,366.457214 
	C528.351257,366.276001 543.682434,366.340240 559.012512,366.356964 
	C560.915588,366.359039 562.818481,366.621216 564.551636,366.750183 
	C564.551636,400.735626 564.551636,434.122284 564.551636,467.777100 
	C538.820251,467.777100 513.509033,467.827698 488.199585,467.637115 
	C486.845215,467.626923 484.722443,465.831635 484.290985,464.450684 
	C482.009491,457.147827 480.199371,449.699158 478.145752,442.323334 
	C467.517578,404.151154 456.786346,366.007263 446.329620,327.788269 
	C445.138977,323.436523 443.352509,321.848755 438.830383,321.893799 
	C418.336945,322.097900 397.839508,322.079590 377.345764,321.893616 
	C373.667023,321.860199 372.059540,322.882568 371.176819,326.541077 
	C363.132904,359.879395 354.958832,393.186615 346.713867,426.475952 
	C343.318604,440.184357 339.657806,453.827057 336.048401,467.767670 
	C334.157288,467.767670 332.518860,467.778564 330.880646,467.765900 
	C319.884277,467.681061 308.885010,467.709412 297.893188,467.437378 
	C294.170349,467.345215 292.953491,468.557709 293.023224,472.311127 
	C293.239746,483.971466 293.124146,495.638000 293.126434,507.302155 
	C293.126892,509.650238 292.744995,512.197693 297.100037,512.494080 
M731.900269,386.500000 
	C731.908508,339.841003 731.915466,293.182037 731.926392,246.523041 
	C731.927979,239.776428 731.936646,239.794891 725.037598,239.794601 
	C567.228638,239.788025 409.419678,239.788437 251.610748,239.695526 
	C248.027634,239.693405 246.956665,240.877441 246.960007,244.298080 
	C247.020233,305.788086 247.029648,367.278198 246.940582,428.768158 
	C246.935089,432.560822 248.335342,433.719116 251.940933,433.654205 
	C263.102844,433.453186 274.268768,433.427063 285.433136,433.429565 
	C291.823822,433.431000 291.835510,433.515350 291.831604,427.188141 
	C291.803528,381.528534 291.770264,335.868958 291.738892,290.209351 
	C291.737549,288.260620 291.738708,286.311859 291.738708,284.158875 
	C423.765961,284.158875 555.265625,284.158875 686.943848,284.158875 
	C686.943848,285.384033 686.944336,286.201843 686.943726,287.019653 
	C686.909485,334.179047 686.931702,381.338684 686.739807,428.497437 
	C686.723450,432.518036 687.828735,433.743469 691.742859,433.680695 
	C703.238159,433.496246 714.745361,433.375824 726.232971,433.723724 
	C730.836304,433.863129 731.982056,432.222900 731.930420,427.992981 
	C731.765503,414.497192 731.887939,400.997925 731.900269,386.500000 
M686.785217,691.454773 
	C686.785217,694.378540 686.785217,697.302246 686.785217,700.224365 
	C554.852173,700.224365 423.662048,700.224365 292.230835,700.224365 
	C292.099060,698.377136 291.903351,696.910400 291.903107,695.443665 
	C291.896729,658.622070 291.845093,621.800232 292.010620,584.979370 
	C292.029816,580.711426 291.044342,578.978516 286.483643,579.086914 
	C275.659821,579.344116 264.825317,579.141846 253.995117,579.142822 
	C247.242859,579.143433 247.149414,579.252563 247.146576,586.241882 
	C247.125870,637.227173 247.151596,688.212646 247.000412,739.197571 
	C246.988174,743.321106 248.474350,744.362549 252.249405,744.279358 
	C261.409515,744.077576 270.576141,744.147522 279.740143,744.147400 
	C428.530701,744.145386 577.321228,744.135132 726.111755,744.225586 
	C730.389709,744.228149 731.957703,743.067444 731.948303,738.582336 
	C731.819885,677.433655 731.806763,616.284607 731.927002,555.135925 
	C731.936218,550.425293 730.711792,548.648132 725.744324,548.807251 
	C715.258606,549.143372 704.753784,548.881226 694.256836,548.868469 
	C687.072388,548.859741 687.043457,548.862610 687.029419,556.002502 
	C686.941345,600.822754 686.867310,645.643066 686.785217,691.454773 
M324.890137,600.249756 
	C320.028961,619.111084 315.223053,637.986938 310.260651,656.821594 
	C309.249634,660.658875 310.366760,661.989624 314.261444,661.951721 
	C326.589905,661.831726 338.923370,661.745422 351.247833,661.995483 
	C354.872375,662.069092 356.026489,660.808838 356.846161,657.455322 
	C361.704285,637.578796 366.887085,617.781738 371.802368,597.918823 
	C372.576324,594.791382 373.885071,593.730530 377.195709,593.745422 
	C407.687653,593.882324 438.180817,593.896729 468.672455,593.730408 
	C472.398102,593.710083 473.907684,594.944214 474.828674,598.410339 
	C480.000549,617.875244 485.464233,637.262878 490.586853,656.740356 
	C491.602814,660.603333 493.106720,662.196228 497.351288,662.070251 
	C509.338928,661.714478 521.343994,661.711975 533.337097,661.896912 
	C537.742554,661.964783 538.695862,660.399536 537.357361,656.535828 
	C536.814636,654.969299 536.595581,653.293884 536.147949,651.690735 
	C527.015259,618.976746 517.835022,586.275940 508.779846,553.540588 
	C507.805054,550.016602 506.006073,548.911438 502.392670,548.916504 
	C449.405884,548.991211 396.418701,548.976196 343.432220,548.805908 
	C339.120514,548.792053 337.225494,550.135437 336.238525,554.341248 
	C332.700195,569.419373 328.818817,584.416992 324.890137,600.249756 
z"/>
<path fill="#FDFDFD" opacity="1.000000" stroke="none" 
	d="
M296.654968,512.478394 
	C292.744995,512.197693 293.126892,509.650238 293.126434,507.302155 
	C293.124146,495.638000 293.239746,483.971466 293.023224,472.311127 
	C292.953491,468.557709 294.170349,467.345215 297.893188,467.437378 
	C308.885010,467.709412 319.884277,467.681061 330.880646,467.765900 
	C332.518860,467.778564 334.157288,467.767670 336.048401,467.767670 
	C339.657806,453.827057 343.318604,440.184357 346.713867,426.475952 
	C354.958832,393.186615 363.132904,359.879395 371.176819,326.541077 
	C372.059540,322.882568 373.667023,321.860199 377.345764,321.893616 
	C397.839508,322.079590 418.336945,322.097900 438.830383,321.893799 
	C443.352509,321.848755 445.138977,323.436523 446.329620,327.788269 
	C456.786346,366.007263 467.517578,404.151154 478.145752,442.323334 
	C480.199371,449.699158 482.009491,457.147827 484.290985,464.450684 
	C484.722443,465.831635 486.845215,467.626923 488.199585,467.637115 
	C513.509033,467.827698 538.820251,467.777100 564.551636,467.777100 
	C564.551636,434.122284 564.551636,400.735626 564.551636,366.750183 
	C562.818481,366.621216 560.915588,366.359039 559.012512,366.356964 
	C543.682434,366.340240 528.351257,366.276001 513.023132,366.457214 
	C509.177063,366.502686 507.786530,365.416565 507.873749,361.367279 
	C508.121307,349.875427 508.054260,338.372284 507.854614,326.877991 
	C507.792542,323.305511 508.677704,321.835602 512.551636,321.847321 
	C560.207642,321.991608 607.864136,322.035309 655.520264,321.971069 
	C659.555420,321.965607 660.653625,323.457611 660.596375,327.271973 
	C660.428955,338.433319 660.424072,349.602875 660.678101,360.761902 
	C660.776794,365.099121 659.357910,366.641876 654.951782,366.574097 
	C641.958008,366.374329 628.958679,366.540314 615.961487,366.562195 
	C614.178467,366.565186 612.395447,366.562622 610.333374,366.562622 
	C610.333374,400.434204 610.333374,433.709930 610.333374,467.467712 
	C611.677490,467.545197 613.110596,467.700104 614.543579,467.699158 
	C628.207031,467.690063 641.871887,467.753571 655.533020,467.560059 
	C659.152466,467.508820 660.554749,468.474426 660.476440,472.332062 
	C660.243164,483.825073 660.197266,495.329529 660.453918,506.821075 
	C660.555603,511.372101 658.791077,512.524292 654.562561,512.465332 
	C641.568237,512.284302 628.569275,512.434448 615.572144,512.455017 
	C613.940247,512.457581 612.308289,512.455383 610.077942,512.455383 
	C610.077942,514.899414 610.077576,516.849548 610.078003,518.799622 
	C610.087341,564.456360 610.041260,610.113281 610.191833,655.769531 
	C610.207031,660.375793 609.301025,662.197632 604.152161,662.008545 
	C592.838684,661.593384 581.489258,661.729553 570.170349,662.111511 
	C565.818909,662.258362 564.813416,660.835754 564.824951,656.764038 
	C564.955688,610.607544 564.931763,564.450623 564.949036,518.293823 
	C564.949707,516.499146 564.949097,514.704468 564.949097,512.471619 
	C562.486084,512.471619 560.521973,512.472229 558.557861,512.471558 
	C507.402191,512.453064 456.246490,512.435791 405.090820,512.414185 
	C398.400940,512.411316 398.398132,512.399963 399.980133,506.121979 
	C402.786285,494.985992 405.791260,483.894775 408.306885,472.693604 
	C409.288483,468.322906 411.424683,467.198212 415.598755,467.369141 
	C423.057495,467.674622 430.537720,467.455139 439.186401,467.455139 
	C429.453430,433.251892 419.861084,399.542664 410.268707,365.833435 
	C409.670624,365.850372 409.072540,365.867279 408.474457,365.884216 
	C406.352997,373.238586 404.023651,380.540314 402.144745,387.956146 
	C392.087616,427.650085 382.076599,467.356171 372.260925,507.110199 
	C371.269653,511.124817 369.716492,512.477661 365.580200,512.451538 
	C342.754486,512.307129 319.926941,512.449829 296.654968,512.478394 
z"/>
<path fill="#FCFCFC" opacity="1.000000" stroke="none" 
	d="
M731.899902,387.000000 
	C731.887939,400.997925 731.765503,414.497192 731.930420,427.992981 
	C731.982056,432.222900 730.836304,433.863129 726.232971,433.723724 
	C714.745361,433.375824 703.238159,433.496246 691.742859,433.680695 
	C687.828735,433.743469 686.723450,432.518036 686.739807,428.497437 
	C686.931702,381.338684 686.909485,334.179047 686.943726,287.019653 
	C686.944336,286.201843 686.943848,285.384033 686.943848,284.158875 
	C555.265625,284.158875 423.765961,284.158875 291.738708,284.158875 
	C291.738708,286.311859 291.737549,288.260620 291.738892,290.209351 
	C291.770264,335.868958 291.803528,381.528534 291.831604,427.188141 
	C291.835510,433.515350 291.823822,433.431000 285.433136,433.429565 
	C274.268768,433.427063 263.102844,433.453186 251.940933,433.654205 
	C248.335342,433.719116 246.935089,432.560822 246.940582,428.768158 
	C247.029648,367.278198 247.020233,305.788086 246.960007,244.298080 
	C246.956665,240.877441 248.027634,239.693405 251.610748,239.695526 
	C409.419678,239.788437 567.228638,239.788025 725.037598,239.794601 
	C731.936646,239.794891 731.927979,239.776428 731.926392,246.523041 
	C731.915466,293.182037 731.908508,339.841003 731.899902,387.000000 
z"/>
<path fill="#FCFCFC" opacity="1.000000" stroke="none" 
	d="
M686.786926,690.959045 
	C686.867310,645.643066 686.941345,600.822754 687.029419,556.002502 
	C687.043457,548.862610 687.072388,548.859741 694.256836,548.868469 
	C704.753784,548.881226 715.258606,549.143372 725.744324,548.807251 
	C730.711792,548.648132 731.936218,550.425293 731.927002,555.135925 
	C731.806763,616.284607 731.819885,677.433655 731.948303,738.582336 
	C731.957703,743.067444 730.389709,744.228149 726.111755,744.225586 
	C577.321228,744.135132 428.530701,744.145386 279.740143,744.147400 
	C270.576141,744.147522 261.409515,744.077576 252.249405,744.279358 
	C248.474350,744.362549 246.988174,743.321106 247.000412,739.197571 
	C247.151596,688.212646 247.125870,637.227173 247.146576,586.241882 
	C247.149414,579.252563 247.242859,579.143433 253.995117,579.142822 
	C264.825317,579.141846 275.659821,579.344116 286.483643,579.086914 
	C291.044342,578.978516 292.029816,580.711426 292.010620,584.979370 
	C291.845093,621.800232 291.896729,658.622070 291.903107,695.443665 
	C291.903351,696.910400 292.099060,698.377136 292.230835,700.224365 
	C423.662048,700.224365 554.852173,700.224365 686.785217,700.224365 
	C686.785217,697.302246 686.785217,694.378540 686.786926,690.959045 
z"/>
<path fill="#FCFCFC" opacity="1.000000" stroke="none" 
	d="
M324.978638,599.847412 
	C328.818817,584.416992 332.700195,569.419373 336.238525,554.341248 
	C337.225494,550.135437 339.120514,548.792053 343.432220,548.805908 
	C396.418701,548.976196 449.405884,548.991211 502.392670,548.916504 
	C506.006073,548.911438 507.805054,550.016602 508.779846,553.540588 
	C517.835022,586.275940 527.015259,618.976746 536.147949,651.690735 
	C536.595581,653.293884 536.814636,654.969299 537.357361,656.535828 
	C538.695862,660.399536 537.742554,661.964783 533.337097,661.896912 
	C521.343994,661.711975 509.338928,661.714478 497.351288,662.070251 
	C493.106720,662.196228 491.602814,660.603333 490.586853,656.740356 
	C485.464233,637.262878 480.000549,617.875244 474.828674,598.410339 
	C473.907684,594.944214 472.398102,593.710083 468.672455,593.730408 
	C438.180817,593.896729 407.687653,593.882324 377.195709,593.745422 
	C373.885071,593.730530 372.576324,594.791382 371.802368,597.918823 
	C366.887085,617.781738 361.704285,637.578796 356.846161,657.455322 
	C356.026489,660.808838 354.872375,662.069092 351.247833,661.995483 
	C338.923370,661.745422 326.589905,661.831726 314.261444,661.951721 
	C310.366760,661.989624 309.249634,660.658875 310.260651,656.821594 
	C315.223053,637.986938 320.028961,619.111084 324.978638,599.847412 
z"/>
</svg>